# xmcd
#
# Track frame offsets:
#   182
#   12467
#   23585
#   39275
#   52445
#   70180
#   82757
#   93512
#   110220
#   127675
#   143852
#   153680
#   167395
#   183487
#   195242
#   207572
#
# Disc length: 2925 seconds
#
# Revision: 0
# Processed by: cddbd v1.5.1PL2 Copyright (c) Steve Scherf et al.
# Submitted via: GXTranscoder 2.0.1939
#
DISCID=d50b6b10
DTITLE=varios - Festival tropical
DYEAR=1900
DGENRE=Latin
TTITLE0=Ay negrita de mi vida
TTITLE1=La medallita
TTITLE2=Lolita
TTITLE3=Nota de sociedad
TTITLE4=La fiesta de la quebrada
TTITLE5=Grande de caderas
TTITLE6=Pobre gato
TTITLE7=Maria belen
TTITLE8=Falso amor
TTITLE9=Quiereme besame
TTITLE10=Ella me decia
TTITLE11=No volveras
TTITLE12=Porque tu no me dices
TTITLE13=Partido por el medio
TTITLE14=Angel de ternura
TTITLE15=Ya no quiero tu cariño
EXTD=
EXTT0=
EXTT1=
EXTT2=
EXTT3=
EXTT4=
EXTT5=
EXTT6=
EXTT7=
EXTT8=
EXTT9=
EXTT10=
EXTT11=
EXTT12=
EXTT13=
EXTT14=
EXTT15=
PLAYORDER=
